<?xml version="1.0" encoding="utf-8" ?>	<!-- Generator: Assembly 2.4 - http://assemblyapp.co -->	<svg version="1.1" xmlns="http://www.w3.org/2000/svg" xmlns:xlink="http://www.w3.org/1999/xlink" width="4096.00" height="4096.00" viewBox="0 0 4096.0 4096.0">		<g id="document" transform="scale(13.653333333333334 13.653333333333334) translate(150.0 150.0)">			<path d="M92.2068,-38.3046 C77.1849,-74.4242 41.5583,-99.8205 4.91701e-06,-99.8205 C-41.5582,-99.8205 -77.1849,-74.4242 -92.2068,-38.3046 L-74.729,-38.3046 C-60.8067,-65.4113 -32.5691,-83.9565 4.91701e-06,-83.9565 C32.5691,-83.9565 60.8067,-65.4113 74.729,-38.3046 L92.2068,-38.3046 L92.2068,-38.3046 Z M-92.2068,38.3046 C-77.1849,74.4242 -41.5582,99.8205 4.91701e-06,99.8205 C41.5583,99.8205 77.1849,74.4242 92.2068,38.3046 L74.729,38.3046 C60.8067,65.4113 32.5691,83.9565 4.91701e-06,83.9565 C-32.5691,83.9565 -60.8067,65.4113 -74.729,38.3046 L-92.2068,38.3046 L-92.2068,38.3046 Z " fill="#ff4c29" fill-opacity="1.00" />			<path d="M-89.3573,15.1603 C-92.06,15.1603 -94.5515,14.7099 -96.8319,13.809 C-99.1123,12.9081 -101.041,11.8383 -102.617,10.5996 C-103.743,11.2189 -104.785,12.1057 -105.742,13.26 C-106.699,14.4143 -107.178,15.8079 -107.178,17.4407 C-107.178,19.0173 -106.714,20.4109 -105.785,21.6214 C-104.855,22.832 -103.56,23.8455 -101.899,24.6619 C-100.238,25.4784 -98.2958,26.0977 -96.0718,26.52 C-93.8477,26.9423 -91.4406,27.1535 -88.8505,27.1535 C-85.247,27.1535 -82.0516,26.7593 -79.2645,25.971 C-76.4773,25.1828 -74.1407,24.0707 -72.2544,22.6349 C-70.3682,21.1991 -68.9464,19.4818 -67.9892,17.483 C-67.032,15.4841 -66.5534,13.3022 -66.5534,10.9374 C-66.5534,6.43294 -67.9752,2.84344 -70.8186,0.168919 C-73.6621,-2.50561 -77.7301,-4.68746 -83.0229,-6.37663 L-87.4992,-7.81243 C-88.9632,-8.26287 -90.0611,-8.75555 -90.7931,-9.29046 C-91.5251,-9.82536 -91.8911,-10.5151 -91.8911,-11.3597 C-91.8911,-12.4295 -91.2998,-13.3163 -90.1174,-14.0201 C-88.935,-14.724 -87.0769,-15.0759 -84.5432,-15.0759 C-82.0657,-15.0759 -79.7853,-14.7803 -77.702,-14.1891 C-75.6187,-13.5978 -73.9577,-12.9081 -72.7189,-12.1198 C-71.7617,-12.8518 -70.9453,-13.7386 -70.2696,-14.7803 C-69.594,-15.8219 -69.2561,-17.0747 -69.2561,-18.5387 C-69.2561,-20.0026 -69.6784,-21.2836 -70.523,-22.3816 C-71.3676,-23.4795 -72.5359,-24.3804 -74.028,-25.0842 C-75.5201,-25.7881 -77.3079,-26.3089 -79.3912,-26.6467 C-81.4745,-26.9846 -83.7267,-27.1535 -86.1479,-27.1535 C-92.7919,-27.1535 -97.958,-25.7177 -101.646,-22.8461 C-105.334,-19.9745 -107.178,-16.1457 -107.178,-11.3597 C-107.178,-8.88224 -106.77,-6.78485 -105.953,-5.06752 C-105.137,-3.35019 -103.997,-1.87217 -102.533,-0.63344 C-101.069,0.605288 -99.3234,1.66102 -97.2964,2.53376 C-95.2694,3.4065 -93.0172,4.26516 -90.5397,5.10975 L-86.9925,6.29217 C-85.3596,6.85523 -84.0927,7.46052 -83.1918,8.10804 C-82.2909,8.75555 -81.8405,9.64237 -81.8405,10.7685 C-81.8405,11.8946 -82.4035,12.9081 -83.5296,13.809 C-84.6558,14.7099 -86.5983,15.1603 -89.3573,15.1603 Z M-12.6688,25.8866 L10.135,25.8866 C11.7116,25.8866 12.9503,25.3798 13.8512,24.3663 C14.7521,23.3528 15.2026,21.8044 15.2026,19.7211 C15.2026,18.5387 15.0336,17.4407 14.6958,16.4272 C14.358,15.4137 13.992,14.5973 13.5979,13.9779 L-5.74319,13.9779 L-5.74319,-19.4677 C-5.74319,-22.2267 -6.36255,-24.0848 -7.60128,-25.042 C-8.84001,-25.9992 -10.867,-26.4778 -13.6823,-26.4778 C-14.9773,-26.4778 -16.2724,-26.3793 -17.5674,-26.1822 C-18.8624,-25.9851 -19.8478,-25.8303 -20.5235,-25.7177 L-20.5235,18.0319 C-20.5235,20.4531 -19.8196,22.3675 -18.412,23.7751 C-17.0043,25.1828 -15.09,25.8866 -12.6688,25.8866 Z M107.178,23.8596 L107.178,-19.7211 C107.178,-22.2549 106.629,-24.0144 105.531,-24.9998 C104.433,-25.9851 102.448,-26.4778 99.5768,-26.4778 C98.2818,-26.4778 97.0149,-26.3933 95.7762,-26.2244 C94.5374,-26.0555 93.6084,-25.9147 92.989,-25.8021 L92.989,-8.15026 C92.989,-5.95433 93.0031,-3.65987 93.0313,-1.26687 C93.0594,1.12612 93.1861,3.67396 93.4113,6.37664 L93.0735,6.4611 C92.2852,4.43409 91.5532,2.64638 90.8776,1.09797 C90.2019,-0.45044 89.4418,-2.09738 88.5972,-3.84286 L80.1513,-20.9035 C79.0252,-23.2121 77.519,-24.6901 75.6328,-25.3376 C73.7465,-25.9851 71.7617,-26.3089 69.6784,-26.3089 C67.8203,-26.3089 66.0749,-26.0273 64.442,-25.4643 C62.8091,-24.9012 61.5985,-24.0566 60.8103,-22.9305 L60.8103,19.5522 C60.8103,22.086 61.3592,23.8455 62.4572,24.8309 C63.5552,25.8162 65.5399,26.3089 68.4115,26.3089 C69.7066,26.3089 70.9735,26.2244 72.2122,26.0555 C73.4509,25.8866 74.38,25.7458 74.9993,25.6332 L74.9993,12.2043 C74.9993,9.4453 74.9852,6.55963 74.9571,3.54727 C74.9289,0.534911 74.7741,-2.7449 74.4926,-6.29217 L75.0838,-6.46108 C75.8721,-4.43408 76.604,-2.64637 77.2797,-1.09796 C77.9554,0.450453 78.7155,2.0974 79.5601,3.84288 L87.9215,20.9035 C89.1039,23.2684 90.6242,24.7605 92.4823,25.3798 C94.3404,25.9992 96.3111,26.3089 98.3944,26.3089 C100.478,26.3089 102.265,26.0977 103.758,25.6754 C105.25,25.2532 106.39,24.6479 107.178,23.8596 Z " fill="#ff4c29" fill-opacity="1.00" />			<path d="M-25.3562,-12.113 L-37.4692,-12.113 L-31.4127,-22.6029 C-33.2054,-23.6447 -35.2647,-24.2261 -37.4692,-24.2261 C-44.1556,-24.2261 -49.5823,-18.7994 -49.5823,-12.113 C-49.5823,-5.42664 -44.1556,-2.12537e-07 -37.4692,7.10543e-15 C-30.7828,2.12537e-07 -25.3562,-5.42664 -25.3562,-12.113 Z " fill="#ff4c29" fill-opacity="1.00" />			<path d="M36.6713,-12.5017 L24.5582,-12.5017 L30.6148,-22.9915 C28.822,-24.0333 26.7628,-24.6147 24.5582,-24.6147 C17.8718,-24.6147 12.4452,-19.1881 12.4452,-12.5017 C12.4452,-5.81525 17.8718,-0.388611 24.5582,-0.388611 C31.2446,-0.388611 36.6713,-5.81525 36.6713,-12.5017 Z " fill="#ff4c29" fill-opacity="1.00" />			<path d="M20.9534,31.3679 C18.9835,40.2563 13.4103,48.2799 4.90618,53.1325 C-4.31858,58.4175 -14.9367,58.85 -24.1134,55.1985 C-23.9212,55.5829 -23.729,55.9672 -23.4888,56.3516 C-16.4741,68.5552 -0.907344,72.7832 11.2962,65.7685 C23.4037,58.898 27.6318,43.5234 20.9534,31.3679 Z " fill="#ff4c29" fill-opacity="1.00" />		</g>	</svg>