<?xml version="1.0" encoding="utf-8" ?>	<!-- Generator: Assembly 2.4 - http://assemblyapp.co -->	<svg version="1.1" xmlns="http://www.w3.org/2000/svg" xmlns:xlink="http://www.w3.org/1999/xlink" width="4096.00" height="4096.00" viewBox="0 0 4096.0 4096.0">		<g id="document" transform="scale(13.653333333333334 13.653333333333334) translate(150.0 150.0)">			<g>				<path d="M-123.988,-8.10572 C-127.738,-8.10572 -131.195,-8.73074 -134.359,-9.98077 C-137.523,-11.2308 -140.199,-12.7152 -142.387,-14.434 C-143.949,-13.5746 -145.395,-12.3441 -146.723,-10.7425 C-148.051,-9.1409 -148.715,-7.20726 -148.715,-4.94157 C-148.715,-2.75401 -148.07,-0.820369 -146.781,0.859364 C-145.492,2.5391 -143.695,3.94538 -141.391,5.07823 C-139.086,6.21107 -136.39,7.07047 -133.304,7.65642 C-130.218,8.24237 -126.878,8.53535 -123.285,8.53535 C-118.284,8.53535 -113.851,7.98846 -109.983,6.89468 C-106.116,5.8009 -102.874,4.25789 -100.257,2.26565 C-97.6393,0.27341 -95.6666,-2.10947 -94.3385,-4.88298 C-93.0103,-7.65649 -92.3462,-10.6839 -92.3462,-13.9653 C-92.3462,-20.2154 -94.3189,-25.196 -98.2644,-28.9071 C-102.21,-32.6181 -107.854,-35.6455 -115.198,-37.9893 L-121.41,-39.9816 C-123.441,-40.6066 -124.964,-41.2902 -125.98,-42.0324 C-126.996,-42.7746 -127.503,-43.7317 -127.503,-44.9036 C-127.503,-46.388 -126.683,-47.6185 -125.042,-48.5951 C-123.402,-49.5717 -120.824,-50.06 -117.308,-50.06 C-113.87,-50.06 -110.706,-49.6498 -107.815,-48.8295 C-104.925,-48.0091 -102.62,-47.0521 -100.901,-45.9583 C-99.573,-46.974 -98.4401,-48.2045 -97.5026,-49.6498 C-96.5651,-51.0952 -96.0963,-52.8335 -96.0963,-54.8648 C-96.0963,-56.8961 -96.6823,-58.6735 -97.8542,-60.197 C-99.0261,-61.7204 -100.647,-62.9705 -102.718,-63.9471 C-104.788,-64.9237 -107.269,-65.6463 -110.159,-66.1151 C-113.05,-66.5839 -116.175,-66.8182 -119.534,-66.8182 C-128.753,-66.8182 -135.922,-64.826 -141.039,-60.8415 C-146.156,-56.857 -148.715,-51.5444 -148.715,-44.9036 C-148.715,-41.466 -148.149,-38.5558 -147.016,-36.1729 C-145.883,-33.79 -144.301,-31.7392 -142.269,-30.0204 C-140.238,-28.3016 -137.816,-26.8367 -135.004,-25.6257 C-132.191,-24.4148 -129.066,-23.2233 -125.628,-22.0514 L-120.706,-20.4107 C-118.441,-19.6295 -116.683,-18.7896 -115.433,-17.8911 C-114.183,-16.9927 -113.558,-15.7622 -113.558,-14.1996 C-113.558,-12.6371 -114.339,-11.2308 -115.902,-9.98077 C-117.464,-8.73074 -120.159,-8.10572 -123.988,-8.10572 Z M-17.5786,6.77749 L14.0629,6.77749 C16.2504,6.77749 17.9692,6.07435 19.2193,4.66806 C20.4693,3.26177 21.0943,1.11328 21.0943,-1.77743 C21.0943,-3.4181 20.8599,-4.94157 20.3912,-6.34786 C19.9224,-7.75415 19.4146,-8.88699 18.8677,-9.74639 L-7.96896,-9.74639 L-7.96896,-56.1539 C-7.96896,-59.9821 -8.82836,-62.5603 -10.5472,-63.8885 C-12.266,-65.2166 -15.0785,-65.8807 -18.9849,-65.8807 C-20.7818,-65.8807 -22.5787,-65.744 -24.3757,-65.4705 C-26.1726,-65.1971 -27.5398,-64.9822 -28.4773,-64.826 L-28.4773,-4.12124 C-28.4773,-0.761775 -27.5007,1.89455 -25.5476,3.84772 C-23.5944,5.8009 -20.9381,6.77749 -17.5786,6.77749 Z M148.715,3.96491 L148.715,-56.5055 C148.715,-60.0212 147.953,-62.4627 146.43,-63.8299 C144.906,-65.1971 142.152,-65.8807 138.168,-65.8807 C136.371,-65.8807 134.613,-65.7635 132.894,-65.5291 C131.175,-65.2948 129.886,-65.0994 129.027,-64.9432 L129.027,-40.4503 C129.027,-37.4034 129.046,-34.2197 129.085,-30.8993 C129.125,-27.5789 129.3,-24.0437 129.613,-20.2936 L129.144,-20.1764 C128.05,-22.9889 127.035,-25.4695 126.097,-27.618 C125.16,-29.7665 124.105,-32.0517 122.933,-34.4736 L111.214,-58.1461 C109.651,-61.3493 107.561,-63.4002 104.944,-64.2986 C102.327,-65.1971 99.573,-65.6463 96.6823,-65.6463 C94.1041,-65.6463 91.6822,-65.2557 89.4165,-64.4744 C87.1508,-63.6932 85.471,-62.5212 84.3773,-60.9587 L84.3773,-2.01181 C84.3773,1.50391 85.139,3.94538 86.6625,5.31261 C88.186,6.67983 90.9399,7.36344 94.9244,7.36344 C96.7213,7.36344 98.4792,7.24625 100.198,7.01187 C101.917,6.77749 103.206,6.58217 104.065,6.42592 L104.065,-12.2074 C104.065,-16.0356 104.046,-20.0396 104.007,-24.2194 C103.968,-28.3992 103.753,-32.9501 103.362,-37.8721 L104.182,-38.1065 C105.276,-35.294 106.292,-32.8134 107.229,-30.6649 C108.167,-28.5164 109.222,-26.2312 110.394,-23.8093 L121.995,-0.13676 C123.636,3.14458 125.746,5.21495 128.324,6.07434 C130.902,6.93374 133.636,7.36344 136.527,7.36344 C139.418,7.36344 141.898,7.07046 143.969,6.48451 C146.039,5.89856 147.621,5.05869 148.715,3.96491 Z " fill="#ff4c29" fill-opacity="1.00" />				<path d="M-35.183,-45.9489 L-51.9904,-45.9489 L-43.5867,-60.5041 C-46.0742,-61.9496 -48.9315,-62.7563 -51.9904,-62.7563 C-61.2681,-62.7563 -68.7979,-55.2266 -68.7979,-45.9489 C-68.7979,-36.6712 -61.2681,-29.1414 -51.9904,-29.1414 C-42.7127,-29.1414 -35.183,-36.6712 -35.183,-45.9489 Z " fill="#ff4c29" fill-opacity="1.00" />				<path d="M50.8832,-46.4881 L34.0758,-46.4881 L42.4795,-61.0434 C39.992,-62.4888 37.1347,-63.2956 34.0758,-63.2956 C24.7981,-63.2956 17.2683,-55.7658 17.2683,-46.4881 C17.2683,-37.2104 24.7981,-29.6807 34.0758,-29.6807 C43.3535,-29.6807 50.8832,-37.2104 50.8832,-46.4881 Z " fill="#ff4c29" fill-opacity="1.00" />				<path d="M29.0739,14.383 C26.3406,26.7162 18.6074,37.8493 6.80757,44.5826 C-5.99225,51.9158 -20.7254,52.5158 -33.4585,47.4492 C-33.1919,47.9825 -32.9252,48.5159 -32.5919,49.0492 C-22.8587,65.9823 -1.25898,71.8489 15.6741,62.1157 C32.4739,52.5825 38.3404,31.2494 29.0739,14.383 Z " fill="#ff4c29" fill-opacity="1.00" />			</g>		</g>	</svg>